<?xml version="1.0" encoding="UTF-8"?>
<svg width="20px" height="20px" viewBox="0 0 32 32" version="1.1" xmlns="http://www.w3.org/2000/svg" xmlns:xlink="http://www.w3.org/1999/xlink">
    <title>ic_2</title>
    <g id="ic_2" stroke="none" stroke-width="1" fill="none" fill-rule="evenodd">
        <path d="M1.01768237,13.2773208 L4.71547707,27.0023862 C5.03302312,28.1810184 6.10185685,29 7.32251633,29 L24.5405543,29 C25.7539174,29 26.8182507,28.1905949 27.1424143,27.0213353 L30.93979,13.3241827 C31.2348881,12.2597623 30.6112292,11.1576547 29.5468087,10.8625566 C29.1339865,10.7481064 28.6953237,10.7692344 28.2954116,10.9228295 L16.1028459,15.6056552 L16.1028459,15.6056552 L3.6578954,10.8869504 C2.62507629,10.4953403 1.47034826,11.0151428 1.07873814,12.0479619 C0.929658036,12.4411407 0.908294028,12.8713053 1.01768237,13.2773208 Z" id="路径-2" fill-opacity="0.6" fill="#F7CE00"></path>
        <path d="M7.00819847,29 L25.0223876,29 C25.8508147,29 26.5223876,28.3284271 26.5223876,27.5 C26.5223876,27.2974888 26.481381,27.0970744 26.4018397,26.9108381 L17.9980376,7.23434106 C17.5641907,6.21854055 16.3890193,5.74677391 15.3732188,6.18062077 C14.9071508,6.37967771 14.5340315,6.74824792 14.3292726,7.21183916 L5.63607693,26.8939616 C5.30137119,27.6517634 5.64435831,28.5374158 6.40216012,28.8721215 C6.59307652,28.9564455 6.7994891,29 7.00819847,29 Z" id="路径-3" fill-opacity="0.8" fill="#F7CE00"></path>
    </g>
</svg>