<?xml version="1.0" encoding="UTF-8"?>
<svg width="93px" height="93px" viewBox="0 0 93 93" version="1.1" xmlns="http://www.w3.org/2000/svg" xmlns:xlink="http://www.w3.org/1999/xlink">
    <title>ic_cal_nine</title>
    <g id="calculator" stroke="none" stroke-width="1" fill="none" fill-rule="evenodd">
        <g id="分布式计算器_A端_计算器首页" transform="translate(-247.000000, -510.000000)" fill="#000000">
            <g id="ic_cal_nine" transform="translate(247.000000, 510.000000)">
                <rect id="矩形备份-10" fill-opacity="0.05" x="0" y="0" width="93" height="93" rx="21"></rect>
                <path d="M45.016632,64 L53.1580042,50.8387097 C54.4996535,48.6756272 55.4753985,46.8629032 56.0852391,45.4005376 C56.6950797,43.938172 57,42.3691756 57,40.6935484 C57,38.6218638 56.5426195,36.7786738 55.6278586,35.1639785 C54.7130977,33.5492832 53.4248094,32.2849462 51.7629938,31.3709677 C50.1011781,30.4569892 48.1878032,30 46.022869,30 C43.8884269,30 41.982675,30.4646057 40.3056133,31.3938172 C38.6285516,32.3230287 37.3250173,33.6102151 36.3950104,35.2553763 C35.4650035,36.9005376 35,38.7284946 35,40.7392473 C35,42.6890681 35.4345114,44.4713262 36.3035343,46.0860215 C37.1725572,47.7007168 38.3998614,48.9802867 39.985447,49.9247312 C41.5710326,50.8691756 43.3853084,51.3413978 45.4282744,51.3413978 C46.6174636,51.3413978 47.6846847,51.1890681 48.6299376,50.8844086 C48.2564103,51.4353345 47.9555132,51.887775 47.7272465,52.2417301 L47.5493763,52.5210013 C47.4693347,52.6485775 47.4026334,52.7580645 47.3492723,52.8494624 L47.3492723,52.8494624 L40.3970894,64 L45.016632,64 Z M46.022869,47.594086 C43.9494109,47.594086 42.3257103,46.9543011 41.1517672,45.6747312 C39.977824,44.3951613 39.3908524,42.7043011 39.3908524,40.6021505 C39.3908524,38.5609319 39.977824,36.9005376 41.1517672,35.6209677 C42.3257103,34.3413978 43.9494109,33.7016129 46.022869,33.7016129 C48.0658351,33.7016129 49.6819127,34.3337814 50.8711019,35.5981183 C52.0602911,36.8624552 52.6548857,38.5304659 52.6548857,40.6021505 C52.6548857,42.6738351 52.0679141,44.3570789 50.8939709,45.6518817 C49.7200277,46.9466846 48.0963271,47.594086 46.022869,47.594086 Z" id="9" fill-rule="nonzero" opacity="0.599999964"></path>
            </g>
        </g>
    </g>
</svg>