<?xml version="1.0" encoding="UTF-8"?>
<svg width="93px" height="93px" viewBox="0 0 93 93" version="1.1" xmlns="http://www.w3.org/2000/svg" xmlns:xlink="http://www.w3.org/1999/xlink">
    <title>ic_cal_devide</title>
    <g id="calculator" stroke="none" stroke-width="1" fill="none" fill-rule="evenodd">
        <g id="分布式计算器_A端_计算器首页" transform="translate(-140.000000, -403.000000)" fill="#007DFF">
            <g id="ic_cal_devide" transform="translate(140.000000, 403.000000)">
                <rect id="矩形备份-14" fill-opacity="0.1" x="0" y="0" width="93" height="93" rx="21"></rect>
                <path d="M46.1702128,57.137931 C47.7683161,57.137931 49.0638298,58.450197 49.0638298,60.0689655 C49.0638298,61.687734 47.7683161,63 46.1702128,63 C44.5721094,63 43.2765957,61.687734 43.2765957,60.0689655 C43.2765957,58.450197 44.5721094,57.137931 46.1702128,57.137931 Z M60.4,46.1034483 C61.2836,46.1034483 62,46.875431 62,47.8275862 C62,48.7801724 61.2836,49.5517241 60.4,49.5517241 L60.4,49.5517241 L31.5996,49.5517241 C30.716,49.5517241 30,48.7801724 30,47.8275862 C30,46.875431 30.716,46.1034483 31.5996,46.1034483 L31.5996,46.1034483 Z M46.1702128,33 C47.7683161,33 49.0638298,34.312266 49.0638298,35.9310345 C49.0638298,37.549803 47.7683161,38.862069 46.1702128,38.862069 C44.5721094,38.862069 43.2765957,37.549803 43.2765957,35.9310345 C43.2765957,34.312266 44.5721094,33 46.1702128,33 Z" id="形状结合"></path>
            </g>
        </g>
    </g>
</svg>