<?xml version="1.0" encoding="UTF-8"?>
<svg width="93px" height="93px" viewBox="0 0 93 93" version="1.1" xmlns="http://www.w3.org/2000/svg" xmlns:xlink="http://www.w3.org/1999/xlink">
    <title>ic_cal_zero_short</title>
    <g id="calculator" stroke="none" stroke-width="1" fill="none" fill-rule="evenodd">
        <g id="分布式计算器_A端_计算器首页" transform="translate(-140.000000, -833.000000)" fill="#000000">
            <g id="ic_cal_zero_short" transform="translate(140.000000, 833.000000)">
                <rect id="矩形备份-27" fill-opacity="0.05" x="0" y="0" width="93" height="93" rx="21"></rect>
                <path d="M45.2459593,65.1464067 C47.4250278,65.1464067 49.342608,64.5165901 50.9987,63.256957 C52.654792,61.9973239 53.9404424,60.1003765 54.8556512,57.5661146 C55.7708599,55.0318528 56.2284643,51.9052635 56.2284643,48.1863468 C56.2284643,44.4374387 55.7708599,41.2958538 54.8556512,38.761592 C53.9404424,36.2273302 52.654792,34.3303827 50.9987,33.0707496 C49.342608,31.8111165 47.4250278,31.1812999 45.2459593,31.1812999 C43.0668909,31.1812999 41.1565742,31.8111165 39.5150093,33.0707496 C37.8734444,34.3303827 36.5950576,36.234828 35.6798488,38.7840854 C34.7646401,41.3333429 34.3070357,44.46743 34.3070357,48.1863468 C34.3070357,51.9052635 34.7646401,55.0318528 35.6798488,57.5661146 C36.5950576,60.1003765 37.8734444,61.9973239 39.5150093,63.256957 C41.1565742,64.5165901 43.0668909,65.1464067 45.2459593,65.1464067 Z M45.2459593,61.4574812 C43.1249994,61.4574812 41.4616438,60.3478044 40.2558926,58.1284508 C39.0501414,55.9090973 38.4472658,52.5950626 38.4472658,48.1863468 C38.4472658,43.7476397 39.0501414,40.4111115 40.2558926,38.1767623 C41.4616438,35.9424131 43.1249994,34.8252385 45.2459593,34.8252385 C47.3959735,34.8252385 49.0738562,35.9424131 50.2796074,38.1767623 C51.4853586,40.4111115 52.0882342,43.7476397 52.0882342,48.1863468 C52.0882342,52.6250539 51.4853586,55.9465864 50.2796074,58.1509443 C49.0738562,60.3553022 47.3959735,61.4574812 45.2459593,61.4574812 Z" id="0" fill-rule="nonzero" opacity="0.600000024"></path>
            </g>
        </g>
    </g>
</svg>