<?xml version="1.0" encoding="UTF-8"?>
<svg width="93px" height="93px" viewBox="0 0 93 93" version="1.1" xmlns="http://www.w3.org/2000/svg" xmlns:xlink="http://www.w3.org/1999/xlink">
    <title>ic_cal_delete</title>
    <g id="calculator" stroke="none" stroke-width="1" fill="none" fill-rule="evenodd">
        <g id="分布式计算器_A端_计算器首页" transform="translate(-355.000000, -403.000000)" fill="#007DFF">
            <g id="ic_cal_delete" transform="translate(355.000000, 403.000000)">
                <rect id="矩形备份-16" fill-opacity="0.1" x="0" y="0" width="93" height="93" rx="21"></rect>
                <path d="M61.0799558,34 C62.6248701,34 64.0408535,35.2257223 63.9990991,36.7567568 L63.9990991,36.7567568 L63.9990991,55.2432432 C63.9990991,56.7742777 62.6248701,58 61.0799558,58 L61.0799558,58 L40.077472,58 C39.409401,58 38.7830844,57.7517241 38.3237855,57.2965517 L38.3237855,57.2965517 L28.7202641,47.8206897 C27.759912,46.8275862 27.759912,45.2551724 28.7202641,44.3034483 L28.7202641,44.3034483 L38.3237855,34.7448276 C38.8248388,34.2482759 39.4511554,34 40.1192265,34 L40.1192265,34 Z M60.7264537,36.9189189 L40.5996847,36.9189189 L31.1090131,45.888164 L40.4360524,55.0810811 L60.7264537,55.0810811 C60.7965818,55.011583 60.8427178,54.9901516 60.882828,54.9805167 L60.9603375,54.9662291 C60.9870447,54.959545 61.0163972,54.9473572 61.0537182,54.9189189 L61.0537182,54.9189189 L61.0537182,37.2432432 C60.9230945,37.0844362 60.7978312,36.9189189 60.7264537,36.9189189 L60.7264537,36.9189189 Z M43.1986165,40.1655172 C43.6579153,39.6689655 44.4512497,39.6689655 44.952303,40.1655172 L44.952303,40.1655172 L49.0859927,44.262069 L53.2196823,40.1655172 C53.7207356,39.6689655 54.51407,39.6689655 55.0151233,40.1655172 C55.5161766,40.6206897 55.5161766,41.4068966 55.0151233,41.9034483 L55.0151233,41.9034483 L50.8814336,46 L54.9733688,50.0965517 C55.4744221,50.5517241 55.4744221,51.337931 54.9733688,51.8344828 C54.51407,52.3310345 53.7207356,52.3310345 53.2196823,51.8344828 L53.2196823,51.8344828 L49.0859927,47.737931 L44.952303,51.8344828 C44.4930042,52.3310345 43.6996698,52.3310345 43.1986165,51.8344828 C42.6975632,51.3793103 42.6975632,50.5931034 43.1986165,50.0965517 L43.1986165,50.0965517 L47.3323061,46 L43.1986165,41.9034483 C42.6975632,41.4482759 42.6975632,40.662069 43.1986165,40.1655172 Z" id="形状结合" fill-rule="nonzero"></path>
            </g>
        </g>
    </g>
</svg>