<?xml version="1.0" encoding="UTF-8"?>
<svg width="201px" height="93px" viewBox="0 0 201 93" version="1.1" xmlns="http://www.w3.org/2000/svg" xmlns:xlink="http://www.w3.org/1999/xlink">
    <title>ic_cal_zero</title>
    <g id="calculator" stroke="none" stroke-width="1" fill="none" fill-rule="evenodd">
        <g id="分布式计算器_B端" transform="translate(-32.000000, -833.000000)" fill="#000000">
            <g id="ic_cal_zero" transform="translate(32.000000, 833.000000)">
                <rect id="矩形备份-27" fill-opacity="0.05" x="0" y="0" width="201" height="93" rx="21"></rect>
                <path d="M46.9781312,64.6854553 C49.1650099,64.6854553 51.0894632,64.0580426 52.7514911,62.8032173 C54.4135189,61.5483919 55.7037773,59.6586847 56.6222664,57.1340957 C57.5407555,54.6095066 58,51.4948508 58,47.7901284 C58,44.0555292 57.5407555,40.9259351 56.6222664,38.401346 C55.7037773,35.8767569 54.4135189,33.9870497 52.7514911,32.7322244 C51.0894632,31.477399 49.1650099,30.8499864 46.9781312,30.8499864 C44.7912525,30.8499864 42.8740888,31.477399 41.2266402,32.7322244 C39.5791915,33.9870497 38.2962227,35.8842261 37.3777336,38.4237536 C36.4592445,40.9632811 36,44.085406 36,47.7901284 C36,51.4948508 36.4592445,54.6095066 37.3777336,57.1340957 C38.2962227,59.6586847 39.5791915,61.5483919 41.2266402,62.8032173 C42.8740888,64.0580426 44.7912525,64.6854553 46.9781312,64.6854553 Z M46.9781312,61.0106097 C44.8495693,61.0106097 43.1802518,59.9051683 41.9701789,57.6942856 C40.760106,55.4834028 40.1550696,52.1820171 40.1550696,47.7901284 C40.1550696,43.3683629 40.760106,40.0445696 41.9701789,37.8187485 C43.1802518,35.5929274 44.8495693,34.4800168 46.9781312,34.4800168 C49.1358516,34.4800168 50.8197482,35.5929274 52.0298211,37.8187485 C53.239894,40.0445696 53.8449304,43.3683629 53.8449304,47.7901284 C53.8449304,52.2118939 53.239894,55.5207488 52.0298211,57.7166931 C50.8197482,59.9126375 49.1358516,61.0106097 46.9781312,61.0106097 Z" id="0" fill-rule="nonzero" opacity="0.599999964"></path>
            </g>
        </g>
    </g>
</svg>