<?xml version="1.0" encoding="UTF-8"?>
<svg width="93px" height="93px" viewBox="0 0 93 93" version="1.1" xmlns="http://www.w3.org/2000/svg" xmlns:xlink="http://www.w3.org/1999/xlink">
    <title>ic_cal_two</title>
    <g id="calculator" stroke="none" stroke-width="1" fill="none" fill-rule="evenodd">
        <g id="分布式计算器_A端_计算器首页" transform="translate(-140.000000, -725.000000)" fill="#000000">
            <g id="ic_cal_two" transform="translate(140.000000, 725.000000)">
                <rect id="矩形备份-23" fill-opacity="0.05" x="0" y="0" width="93" height="93" rx="21"></rect>
                <path d="M57,65 L57,61.3946309 L42.1156317,61.3946309 L49.6702355,52.9060403 C52.0685225,50.2286353 53.7473233,48.0076063 54.7066381,46.242953 C55.6659529,44.4782998 56.1456103,42.6071588 56.1456103,40.6295302 C56.1456103,38.5910515 55.7184154,36.849217 54.8640257,35.4040268 C54.009636,33.9588367 52.862955,32.8635347 51.4239829,32.1181208 C49.9850107,31.3727069 48.3961456,31 46.6573876,31 C44.2591006,31 42.0856531,31.69217 40.137045,33.0765101 C38.1884368,34.4608501 36.8843683,36.4004474 36.2248394,38.895302 L36.2248394,38.895302 L39.4625268,40.766443 C40.0021413,38.9409396 40.8865096,37.4729306 42.1156317,36.3624161 C43.3447537,35.2519016 44.7687366,34.6966443 46.3875803,34.6966443 C47.9764454,34.6966443 49.2955032,35.2290828 50.3447537,36.2939597 C51.3940043,37.3588367 51.9186296,38.864877 51.9186296,40.8120805 C51.9186296,42.3333333 51.5438972,43.7404922 50.7944325,45.033557 C50.0449679,46.3266219 48.6659529,48.0988814 46.6573876,50.3503356 L46.6573876,50.3503356 L36,62.3986577 L36,65 L57,65 Z" id="2" fill-rule="nonzero" opacity="0.599999964"></path>
            </g>
        </g>
    </g>
</svg>