<?xml version="1.0" encoding="UTF-8"?>
<svg width="93px" height="93px" viewBox="0 0 93 93" version="1.1" xmlns="http://www.w3.org/2000/svg" xmlns:xlink="http://www.w3.org/1999/xlink">
    <title>  ic_cal_six</title>
    <g id="calculator" stroke="none" stroke-width="1" fill="none" fill-rule="evenodd">
        <g id="分布式计算器_A端_计算器首页" transform="translate(-247.000000, -618.000000)" fill="#000000">
            <g id="--ic_cal_six" transform="translate(247.000000, 618.000000)">
                <rect id="矩形备份-18" fill-opacity="0.05" x="0" y="0" width="93" height="93" rx="21"></rect>
                <path d="M45.977131,65 C48.1115731,65 50.017325,64.5490591 51.6943867,63.6471774 C53.3714484,62.7452957 54.6749827,61.4959677 55.6049896,59.8991935 C56.5349965,58.3024194 57,56.5282258 57,54.5766129 C57,52.6841398 56.5654886,50.9543011 55.6964657,49.3870968 C54.8274428,47.8198925 53.6001386,46.577957 52.014553,45.6612903 C50.4289674,44.7446237 48.6146916,44.2862903 46.5717256,44.2862903 C45.3825364,44.2862903 44.3153153,44.4341398 43.3700624,44.7298387 C44.010395,43.813172 44.4372834,43.1774194 44.6507277,42.8225806 L44.6507277,42.8225806 L51.6029106,32 L46.983368,32 L38.8419958,44.7741935 C37.5003465,46.8736559 36.5246015,48.6330645 35.9147609,50.0524194 C35.3049203,51.4717742 35,52.9946237 35,54.6209677 C35,56.6317204 35.4573805,58.4206989 36.3721414,59.9879032 C37.2869023,61.5551075 38.5751906,62.7822581 40.2370062,63.6693548 C41.8988219,64.5564516 43.8121968,65 45.977131,65 Z M45.977131,61.4072581 C43.9341649,61.4072581 42.3180873,60.7936828 41.1288981,59.5665323 C39.9397089,58.3393817 39.3451143,56.7204301 39.3451143,54.7096774 C39.3451143,52.6989247 39.9320859,51.0651882 41.1060291,49.8084677 C42.2799723,48.5517473 43.9036729,47.9233871 45.977131,47.9233871 C48.0505891,47.9233871 49.6742897,48.5443548 50.8482328,49.7862903 C52.022176,51.0282258 52.6091476,52.6693548 52.6091476,54.7096774 C52.6091476,56.6908602 52.022176,58.3024194 50.8482328,59.5443548 C49.6742897,60.7862903 48.0505891,61.4072581 45.977131,61.4072581 Z" id="6" fill-rule="nonzero" opacity="0.599999964"></path>
            </g>
        </g>
    </g>
</svg>