<?xml version="1.0" encoding="UTF-8"?>
<svg width="93px" height="93px" viewBox="0 0 93 93" version="1.1" xmlns="http://www.w3.org/2000/svg" xmlns:xlink="http://www.w3.org/1999/xlink">
    <title>ic_cal_five</title>
    <g id="calculator" stroke="none" stroke-width="1" fill="none" fill-rule="evenodd">
        <g id="分布式计算器_A端_计算器首页" transform="translate(-140.000000, -618.000000)" fill="#000000">
            <g id="ic_cal_five" transform="translate(140.000000, 618.000000)">
                <rect id="矩形备份-19" fill-opacity="0.05" x="0" y="0" width="93" height="93" rx="21"></rect>
                <path d="M45.6017699,65 C47.4896755,65 49.2227139,64.5564516 50.800885,63.6693548 C52.379056,62.7822581 53.640118,61.5181452 54.5840708,59.8770161 C55.5280236,58.2358871 56,56.3655914 56,54.266129 C56,52.2258065 55.5648968,50.422043 54.6946903,48.8548387 C53.8244838,47.2876344 52.6224189,46.0752688 51.0884956,45.2177419 C49.5545723,44.3602151 47.8289086,43.9314516 45.9115044,43.9314516 C44.0235988,43.9314516 42.4011799,44.3454301 41.0442478,45.1733871 L41.0442478,45.1733871 L42.3274336,35.4596774 L54.539823,35.4596774 L54.539823,32 L38.8761062,32 L36.6637168,49.7419355 L39.1858407,51.0282258 C39.8348083,49.9637097 40.7123894,49.0987903 41.8185841,48.4334677 C42.9247788,47.7681452 44.1858407,47.4354839 45.6017699,47.4354839 C47.5781711,47.4354839 49.1120944,48.0860215 50.2035398,49.3870968 C51.2949853,50.688172 51.840708,52.3736559 51.840708,54.4435484 C51.840708,56.5725806 51.280236,58.265457 50.159292,59.5221774 C49.0383481,60.7788978 47.519174,61.4072581 45.6017699,61.4072581 C44.1268437,61.4072581 42.8362832,61.015457 41.7300885,60.2318548 C40.6238938,59.4482527 39.7758112,58.3172043 39.1858407,56.8387097 L39.1858407,56.8387097 L36,58.6572581 C36.7079646,60.6680108 37.9469027,62.2278226 39.7168142,63.3366935 C41.4867257,64.4455645 43.4483776,65 45.6017699,65 Z" id="5" fill-rule="nonzero" opacity="0.599999964"></path>
            </g>
        </g>
    </g>
</svg>