<?xml version="1.0" encoding="UTF-8"?>
<svg width="93px" height="93px" viewBox="0 0 93 93" version="1.1" xmlns="http://www.w3.org/2000/svg" xmlns:xlink="http://www.w3.org/1999/xlink">
    <title>ic_cal_multiply</title>
    <g id="calculator" stroke="none" stroke-width="1" fill="none" fill-rule="evenodd">
        <g id="分布式计算器_A端_计算器首页" transform="translate(-247.000000, -403.000000)" fill="#007DFF">
            <g id="ic_cal_multiply" transform="translate(247.000000, 403.000000)">
                <rect id="矩形备份-13" fill-opacity="0.1" x="0" y="0" width="93" height="93" rx="21"></rect>
                <path d="M58.5431814,34.5188446 C59.1564674,35.1666731 59.1491081,36.1796861 58.5399965,36.8184819 L58.4829655,36.8755028 L48.9116339,45.999758 L58.4829655,55.1244972 C59.1480922,55.7585839 59.1750518,56.8136957 58.5431814,57.4811554 C57.9298954,58.1289839 56.9213726,58.1735238 56.25443,57.5958161 L56.1947604,57.5415825 L46.4999966,48.2988247 L36.8052328,57.5415825 C36.1401061,58.1756692 35.0886821,58.1486151 34.4568117,57.4811554 C33.8435258,56.8333269 33.850885,55.8203139 34.4599967,55.1815181 L34.5170277,55.1244972 L44.0880439,45.999758 L34.5170277,36.8755028 C33.8519009,36.2414161 33.8249414,35.1863043 34.4568117,34.5188446 C35.0700977,33.8710161 36.0786205,33.8264762 36.7455631,34.4041839 L36.8052328,34.4584175 L46.4996728,43.7006913 L56.1947604,34.4584175 C56.8598871,33.8243308 57.911311,33.8513849 58.5431814,34.5188446 Z" id="形状结合" fill-rule="nonzero"></path>
            </g>
        </g>
    </g>
</svg>