<?xml version="1.0" encoding="UTF-8"?>
<svg width="93px" height="93px" viewBox="0 0 93 93" version="1.1" xmlns="http://www.w3.org/2000/svg" xmlns:xlink="http://www.w3.org/1999/xlink">
    <title>ic_cal_percent</title>
    <g id="calculator" stroke="none" stroke-width="1" fill="none" fill-rule="evenodd">
        <g id="分布式计算器_A端_计算器首页" transform="translate(-32.000000, -833.000000)" fill="#000000">
            <g id="ic_cal_percent" transform="translate(32.000000, 833.000000)">
                <rect id="矩形备份-28" fill-opacity="0.05" x="0" y="0" width="93" height="93" rx="21"></rect>
                <path d="M38.5604681,44.7165563 C39.9752926,44.7165563 41.2574772,44.393819 42.4070221,43.7483444 C43.556567,43.1028698 44.4629389,42.1871965 45.1261378,41.0013245 C45.7893368,39.8154525 46.1209363,38.4419426 46.1209363,36.8807947 C46.1209363,35.2896247 45.7893368,33.9011038 45.1261378,32.7152318 C44.4629389,31.5293598 43.556567,30.6136865 42.4070221,29.9682119 C41.2574772,29.3227373 39.9752926,29 38.5604681,29 C37.1456437,29 35.863459,29.3227373 34.7139142,29.9682119 C33.5643693,30.6136865 32.6579974,31.5293598 31.9947984,32.7152318 C31.3315995,33.9011038 31,35.2896247 31,36.8807947 C31,38.4419426 31.3315995,39.8154525 31.9947984,41.0013245 C32.6579974,42.1871965 33.5643693,43.1028698 34.7139142,43.7483444 C35.863459,44.393819 37.1456437,44.7165563 38.5604681,44.7165563 Z M40.373212,62.5046358 L59.6944083,29.4953642 L55.626788,29.4953642 L36.3055917,62.5046358 L40.373212,62.5046358 Z M38.5604681,41.2490066 C37.4698743,41.2490066 36.5635024,40.8437086 35.8413524,40.0331126 C35.1192024,39.2225166 34.7581274,38.1717439 34.7581274,36.8807947 C34.7581274,35.5598234 35.1192024,34.4940397 35.8413524,33.6834437 C36.5635024,32.8728477 37.4698743,32.4675497 38.5604681,32.4675497 C39.651062,32.4675497 40.5574339,32.8728477 41.2795839,33.6834437 C42.0017339,34.4940397 42.3628088,35.5598234 42.3628088,36.8807947 C42.3628088,38.1717439 42.0017339,39.2225166 41.2795839,40.0331126 C40.5574339,40.8437086 39.651062,41.2490066 38.5604681,41.2490066 Z M57.4395319,63 C58.8543563,63 60.136541,62.6772627 61.2860858,62.0317881 C62.4356307,61.3863135 63.3420026,60.4706402 64.0052016,59.2847682 C64.6684005,58.0988962 65,56.7253863 65,55.1642384 C65,53.5730684 64.6684005,52.1845475 64.0052016,50.9986755 C63.3420026,49.8128035 62.4356307,48.8971302 61.2860858,48.2516556 C60.136541,47.606181 58.8543563,47.2834437 57.4395319,47.2834437 C56.0247074,47.2834437 54.7425228,47.606181 53.5929779,48.2516556 C52.443433,48.8971302 51.5370611,49.8128035 50.8738622,50.9986755 C50.2106632,52.1845475 49.8790637,53.5730684 49.8790637,55.1642384 C49.8790637,56.7253863 50.2106632,58.0988962 50.8738622,59.2847682 C51.5370611,60.4706402 52.443433,61.3863135 53.5929779,62.0317881 C54.7425228,62.6772627 56.0247074,63 57.4395319,63 Z M57.4395319,59.5324503 C56.348938,59.5324503 55.4425661,59.1271523 54.7204161,58.3165563 C53.9982661,57.5059603 53.6371912,56.4551876 53.6371912,55.1642384 C53.6371912,53.8432671 53.9982661,52.7774834 54.7204161,51.9668874 C55.4425661,51.1562914 56.348938,50.7509934 57.4395319,50.7509934 C58.5301257,50.7509934 59.4364976,51.1562914 60.1586476,51.9668874 C60.8807976,52.7774834 61.2418726,53.8432671 61.2418726,55.1642384 C61.2418726,56.4551876 60.8807976,57.5059603 60.1586476,58.3165563 C59.4364976,59.1271523 58.5301257,59.5324503 57.4395319,59.5324503 Z" id="%" fill-rule="nonzero" opacity="0.600000024"></path>
            </g>
        </g>
    </g>
</svg>