<?xml version="1.0" encoding="UTF-8"?>
<svg width="93px" height="93px" viewBox="0 0 93 93" version="1.1" xmlns="http://www.w3.org/2000/svg" xmlns:xlink="http://www.w3.org/1999/xlink">
    <title>ic_cal_three</title>
    <g id="calculator" stroke="none" stroke-width="1" fill="none" fill-rule="evenodd">
        <g id="分布式计算器_A端_计算器首页" transform="translate(-247.000000, -725.000000)" fill="#000000">
            <g id="ic_cal_three" transform="translate(247.000000, 725.000000)">
                <rect id="矩形备份-22" fill-opacity="0.05" x="0" y="0" width="93" height="93" rx="21"></rect>
                <path d="M47.611465,65 C49.4840764,65 51.2080679,64.6172185 52.7834395,63.8516556 C54.358811,63.0860927 55.6220807,61.9602649 56.5732484,60.4741722 C57.5244161,58.9880795 58,57.2242826 58,55.1827815 C58,53.1112583 57.5169851,51.3699779 56.5509554,49.9589404 C55.5849257,48.5479029 54.1210191,47.5271523 52.1592357,46.8966887 C53.7346072,46.2362031 54.9012739,45.2754967 55.6592357,44.0145695 C56.4171975,42.7536424 56.7961783,41.2975717 56.7961783,39.6463576 C56.7961783,37.0644592 55.9490446,34.9779249 54.2547771,33.386755 C52.5605096,31.795585 50.3163482,31 47.522293,31 C45.1146497,31 43.0116773,31.6229581 41.2133758,32.8688742 C39.4150743,34.1147903 38.1592357,35.9536424 37.4458599,38.3854305 L37.4458599,38.3854305 L40.656051,40.2317881 C41.2505308,38.4304636 42.1050955,37.0494481 43.2197452,36.0887417 C44.3343949,35.1280353 45.6942675,34.6476821 47.2993631,34.6476821 C48.8450106,34.6476821 50.1082803,35.0980132 51.089172,35.9986755 C52.0700637,36.8993377 52.5605096,38.1452539 52.5605096,39.7364238 C52.5605096,41.41766 51.9883227,42.7986755 50.843949,43.8794702 C49.6995754,44.9602649 48.0276008,45.5006623 45.8280255,45.5006623 L45.8280255,45.5006623 L44.2675159,45.5006623 L44.2229299,49.1033113 L45.6050955,49.1033113 C51.044586,49.1033113 53.7643312,51.1147903 53.7643312,55.1377483 C53.7643312,57.0891832 53.1772824,58.6128035 52.0031847,59.7086093 C50.829087,60.804415 49.3651805,61.3523179 47.611465,61.3523179 C46.0063694,61.3523179 44.5127389,60.8944812 43.1305732,59.9788079 C41.7484076,59.0631347 40.7749469,57.7046358 40.2101911,55.9033113 L40.2101911,55.9033113 L37,57.7496689 C37.6836518,60.1214128 39.0286624,61.9227373 41.0350318,63.1536424 C43.0414013,64.3845475 45.2335456,65 47.611465,65 Z" id="3" fill-rule="nonzero" opacity="0.599999964"></path>
            </g>
        </g>
    </g>
</svg>