<?xml version="1.0" encoding="UTF-8"?>
<svg width="93px" height="93px" viewBox="0 0 93 93" version="1.1" xmlns="http://www.w3.org/2000/svg" xmlns:xlink="http://www.w3.org/1999/xlink">
    <title>ic_cal_eight</title>
    <g id="calculator" stroke="none" stroke-width="1" fill="none" fill-rule="evenodd">
        <g id="分布式计算器_A端_计算器首页" transform="translate(-140.000000, -510.000000)" fill="#000000">
            <g id="ic_cal_eight" transform="translate(140.000000, 510.000000)">
                <rect id="矩形备份-11" fill-opacity="0.05" x="0" y="0" width="93" height="93" rx="21"></rect>
                <path d="M47.090535,66 C49.2030178,66 51.0891632,65.5721854 52.7489712,64.7165563 C54.4087791,63.8609272 55.6989026,62.6900662 56.6193416,61.2039735 C57.5397805,59.7178808 58,58.0441501 58,56.1827815 C58,54.2313466 57.494513,52.5050773 56.4835391,51.0039735 C55.4725652,49.5028698 54.0768176,48.3770419 52.2962963,47.6264901 C53.6844993,46.9059603 54.7784636,45.9377483 55.5781893,44.7218543 C56.377915,43.5059603 56.7777778,42.1324503 56.7777778,40.6013245 C56.7777778,39.0101545 56.3703704,37.5540839 55.5555556,36.2331126 C54.7407407,34.9121413 53.5939643,33.8763797 52.1152263,33.1258278 C50.6364883,32.3752759 48.9615912,32 47.090535,32 C45.1893004,32 43.4766804,32.3827815 41.9526749,33.1483444 C40.4286694,33.9139073 39.2441701,34.9496689 38.399177,36.2556291 C37.5541838,37.5615894 37.1316872,39.0101545 37.1316872,40.6013245 C37.1316872,42.1624724 37.5466392,43.5509934 38.3765432,44.7668874 C39.2064472,45.9827815 40.3305898,46.9359823 41.7489712,47.6264901 C39.9684499,48.407064 38.5651578,49.5403974 37.5390947,51.0264901 C36.5130316,52.5125828 36,54.2313466 36,56.1827815 C36,58.0441501 36.4677641,59.7178808 37.4032922,61.2039735 C38.3388203,62.6900662 39.6440329,63.8609272 41.31893,64.7165563 C42.9938272,65.5721854 44.9176955,66 47.090535,66 Z M47.090535,45.8701987 C45.340192,45.8701987 43.9444444,45.3898455 42.9032922,44.4291391 C41.8621399,43.4684327 41.3415638,42.2375276 41.3415638,40.7364238 C41.3415638,39.1752759 41.8621399,37.9143488 42.9032922,36.9536424 C43.9444444,35.992936 45.340192,35.5125828 47.090535,35.5125828 C48.8106996,35.5125828 50.1838134,35.992936 51.2098765,36.9536424 C52.2359396,37.9143488 52.7489712,39.1752759 52.7489712,40.7364238 C52.7489712,42.2375276 52.2359396,43.4684327 51.2098765,44.4291391 C50.1838134,45.3898455 48.8106996,45.8701987 47.090535,45.8701987 Z M47.090535,62.397351 C45.0082305,62.397351 43.3559671,61.8344371 42.1337449,60.7086093 C40.9115226,59.5827815 40.3004115,58.0291391 40.3004115,56.0476821 C40.3004115,54.0662252 40.9039781,52.4900662 42.1111111,51.3192053 C43.3182442,50.1483444 44.9780521,49.5629139 47.090535,49.5629139 C49.1426612,49.5629139 50.7722908,50.1483444 51.9794239,51.3192053 C53.1865569,52.4900662 53.7901235,54.0662252 53.7901235,56.0476821 C53.7901235,57.999117 53.1790123,59.5452539 51.9567901,60.6860927 C50.7345679,61.8269316 49.1124829,62.397351 47.090535,62.397351 Z" id="8" fill-rule="nonzero" opacity="0.6"></path>
            </g>
        </g>
    </g>
</svg>