<?xml version="1.0" encoding="UTF-8"?>
<svg width="93px" height="93px" viewBox="0 0 93 93" version="1.1" xmlns="http://www.w3.org/2000/svg" xmlns:xlink="http://www.w3.org/1999/xlink">
    <title>ic_cal_delete_c</title>
    <g id="calculator" stroke="none" stroke-width="1" fill="none" fill-rule="evenodd">
        <g id="分布式计算器_A端_计算器首页" transform="translate(-32.000000, -403.000000)" fill="#007DFF">
            <g id="ic_cal_delete_c" transform="translate(32.000000, 403.000000)">
                <rect id="矩形备份-15" fill-opacity="0.1" x="0" y="0" width="93" height="93" rx="21"></rect>
                <path d="M47.1668153,60.9223919 C50.2807018,60.9223919 52.7763901,60.0845554 54.6538805,58.4088826 C56.5313708,56.7332097 57.646744,54.3532201 58,51.2689139 L58,51.2689139 L54.2123104,51.2689139 C53.8459709,53.6722694 53.103479,55.3579562 51.984835,56.3259744 C50.8661909,57.2939926 49.2601844,57.7780017 47.1668153,57.7780017 C44.8379423,57.7780017 43.0258698,56.8433635 41.7305977,54.974087 C40.4353256,53.1048105 39.7876896,50.5879632 39.7876896,47.4235451 L39.7876896,47.4235451 L39.7876896,44.5996023 C39.7876896,41.2482566 40.4713054,38.6646494 41.838537,36.8487808 C43.2057687,35.0329122 45.0930717,34.1249779 47.500446,34.1249779 C49.4629795,34.1249779 50.9904847,34.6457049 52.0829616,35.687159 C53.1754386,36.728613 53.8852215,38.4109619 54.2123104,40.7342055 L54.2123104,40.7342055 L58,40.7342055 C57.6990782,37.6766033 56.6327684,35.2832617 54.8010705,33.554181 C52.9693726,31.8251002 50.5358311,30.9605598 47.500446,30.9605598 C45.2108237,30.9605598 43.195956,31.5113288 41.455843,32.6128667 C39.71573,33.7144047 38.3713946,35.2932757 37.4228368,37.3494799 C36.4742789,39.405684 36,41.7890116 36,44.4994625 L36,44.4994625 L36,47.3033773 C36,51.4424896 37.0172465,54.7471034 39.0517395,57.2172188 C41.0862325,59.6873342 43.7912578,60.9223919 47.1668153,60.9223919 Z" id="C" fill-rule="nonzero"></path>
            </g>
        </g>
    </g>
</svg>