<?xml version="1.0" encoding="UTF-8"?>
<svg width="32px" height="32px" viewBox="0 0 32 32" version="1.1" xmlns="http://www.w3.org/2000/svg" xmlns:xlink="http://www.w3.org/1999/xlink">
    <title>icon-hop</title>
    <defs>
        <rect id="path-1" x="0" y="0" width="32" height="32"></rect>
    </defs>
    <g id="calculator" stroke="none" stroke-width="1" fill="none" fill-rule="evenodd">
        <g id="分布式计算器_A端_计算器首页" transform="translate(-416.000000, -55.000000)">
            <g id="icon-hop" transform="translate(416.000000, 55.000000)">
                <mask id="mask-2" fill="white">
                    <use xlink:href="#path-1"></use>
                </mask>
                <g id="蒙版"></g>
                <path d="M29.6666667,15 C30.2189514,15 30.6666667,15.4477153 30.6666667,16 C30.6666667,24.1001763 24.1001763,30.6666667 16,30.6666667 C7.89982367,30.6666667 1.33333333,24.1001763 1.33333333,16 C1.33333333,15.4477153 1.78104858,15 2.33333333,15 C2.88561808,15 3.33333333,15.4477153 3.33333333,16 C3.33333333,22.9956068 9.00439317,28.6666667 16,28.6666667 C22.9956068,28.6666667 28.6666667,22.9956068 28.6666667,16 C28.6666667,15.4477153 29.1143819,15 29.6666667,15 Z M17.8821367,8.92546229 L17.9398151,8.98122726 L21.7110513,12.7524634 C21.882882,12.9242941 21.9791072,13.1431 21.9997269,13.367543 L22.0034759,13.4288634 L22.0034759,13.490277 C21.9959778,13.7358693 21.898503,13.9792253 21.7110513,14.166677 C21.3344743,14.543254 20.7322786,14.5567032 20.339586,14.2070245 L20.2968378,14.166677 L17.2898066,11.1598097 L17.2898518,16.7582631 C17.2898518,19.6145236 15.0445605,21.9463683 12.2227056,22.0850693 L11.9565185,22.0915964 L11.5758066,22.0915964 C11.0235218,22.0915964 10.5758066,21.6438812 10.5758066,21.0915964 C10.5758066,20.5853354 10.9520118,20.1669418 11.4401125,20.1007252 L11.5758066,20.0915964 L11.9565185,20.0915964 C13.7238297,20.0915964 15.1699034,18.7162152 15.2827616,16.9774307 L15.2898518,16.7582631 L15.2898066,11.1588097 L12.2829609,14.166677 C11.8924366,14.5572013 11.2592716,14.5572013 10.8687473,14.166677 C10.6804588,13.9783885 10.5829523,13.7336953 10.5762277,13.4869877 L10.5764378,13.4253003 C10.5841431,13.1991901 10.6681304,12.9751958 10.8283998,12.7952117 L10.8687473,12.7524634 L14.6399835,8.98122726 C15.532223,8.08898773 16.9672798,8.0703994 17.8821367,8.92546229 Z M28.0761393,9.55564886 C28.7488556,9.25613626 29.5370028,9.55867764 29.8365154,10.2313939 C30.136028,10.9041102 29.8334866,11.6922575 29.1607703,11.9917701 C28.488054,12.2912827 27.6999068,11.9887413 27.4003942,11.316025 C27.1008816,10.6433087 27.403423,9.85516145 28.0761393,9.55564886 Z M3.92272633,9.55564886 C4.59544262,9.85516145 4.897984,10.6433087 4.59847141,11.316025 C4.29895882,11.9887413 3.51081158,12.2912827 2.83809528,11.9917701 C2.16537898,11.6922575 1.8628376,10.9041102 2.16235019,10.2313939 C2.46186278,9.55867764 3.25001003,9.25613626 3.92272633,9.55564886 Z M24.7169976,5.39752589 C25.2376967,4.87682684 26.0819167,4.87682684 26.6026157,5.39752589 C27.1233148,5.91822495 27.1233148,6.76244492 26.6026157,7.28314398 C26.0819167,7.80384303 25.2376967,7.80384303 24.7169976,7.28314398 C24.1962986,6.76244492 24.1962986,5.91822495 24.7169976,5.39752589 Z M7.27787977,5.39337844 C7.79857882,5.9140775 7.79857882,6.75829747 7.27787977,7.27899653 C6.75718071,7.79969558 5.91296074,7.79969558 5.39226168,7.27899653 C4.87156263,6.75829747 4.87156263,5.9140775 5.39226168,5.39337844 C5.91296074,4.87267939 6.75718071,4.87267939 7.27787977,5.39337844 Z M20.0194755,2.82901186 C20.2953281,2.14625253 21.0724367,1.8163895 21.7551961,2.09224218 C22.4379554,2.36809486 22.7678184,3.14520344 22.4919657,3.82796278 C22.2161131,4.51072212 21.4390045,4.84058514 20.7562451,4.56473246 C20.0734858,4.28887978 19.7436228,3.5117712 20.0194755,2.82901186 Z M11.9852991,2.82899202 C12.2611517,3.51175136 11.9312887,4.28885994 11.2485294,4.56471262 C10.5657701,4.8405653 9.78866147,4.51070228 9.51280879,3.82794294 C9.23695611,3.1451836 9.56681914,2.36807502 10.2495785,2.09222234 C10.9323378,1.81636966 11.7094464,2.14623269 11.9852991,2.82899202 Z M16,1.13333333 C16.7363797,1.13333333 17.3333333,1.730287 17.3333333,2.46666667 C17.3333333,3.20304633 16.7363797,3.8 16,3.8 C15.2636203,3.8 14.6666667,3.20304633 14.6666667,2.46666667 C14.6666667,1.730287 15.2636203,1.13333333 16,1.13333333 Z" id="icon-流转" fill="#000000" fill-rule="nonzero" mask="url(#mask-2)"></path>
            </g>
        </g>
    </g>
</svg>