<?xml version="1.0" encoding="UTF-8"?>
<svg width="24px" height="24px" viewBox="0 0 24 24" version="1.1" xmlns="http://www.w3.org/2000/svg" xmlns:xlink="http://www.w3.org/1999/xlink">
    <title>Public/ic_public_delete_filled</title>
    <defs>
        <path d="M19.905,7 L18.7182288,19.0681369 C18.5545878,20.7318206 17.1555495,22 15.4838372,22 L15.4838372,22 L8.51616277,22 C6.84445049,22 5.44541221,20.7318206 5.28177119,19.0681369 L5.28177119,19.0681369 L4.094,7 L19.905,7 Z M10,11.75 C9.58578644,11.75 9.25,12.0857864 9.25,12.5 L9.25,12.5 L9.25,18.5 C9.25,18.9142136 9.58578644,19.25 10,19.25 C10.4142136,19.25 10.75,18.9142136 10.75,18.5 L10.75,18.5 L10.75,12.5 C10.75,12.0857864 10.4142136,11.75 10,11.75 Z M14,11.75 C13.5857864,11.75 13.25,12.0857864 13.25,12.5 L13.25,12.5 L13.25,18.5 C13.25,18.9142136 13.5857864,19.25 14,19.25 C14.4142136,19.25 14.75,18.9142136 14.75,18.5 L14.75,18.5 L14.75,12.5 C14.75,12.0857864 14.4142136,11.75 14,11.75 Z M12,1.75 C13.5727118,1.75 14.862769,2.9601879 14.9897427,4.50013463 L21.25,4.5 C21.6642136,4.5 22,4.83578644 22,5.25 C22,5.64942022 21.68777,5.97591522 21.2940682,5.99872683 L21.25,6 L2.75,6 C2.33578644,6 2,5.66421356 2,5.25 C2,4.85057978 2.31222999,4.52408478 2.7059318,4.50127317 L2.75,4.5 L9.01025734,4.50013463 C9.13723098,2.9601879 10.4272882,1.75 12,1.75 Z" id="path-1"></path>
    </defs>
    <g id="Public/ic_public_delete_filled" stroke="none" stroke-width="1" fill="none" fill-rule="evenodd">
        <mask id="mask-2" fill="white">
            <use xlink:href="#path-1"></use>
        </mask>
        <use id="形状结合" fill="#000000" fill-rule="nonzero" xlink:href="#path-1"></use>
    </g>
</svg>