<svg xmlns="http://www.w3.org/2000/svg"
    xmlns:xlink="http://www.w3.org/1999/xlink"
    width="20"
    height="20"

    version="1.1"
    viewBox="0 0 144 144">
    <defs>
        <circle
            id="uxs-a"
            cx="72"
            cy="72"
            r="72" />
    </defs>
    <g
        fill="none"
        fill-rule="evenodd"
        stroke="none"
        stroke-width="1">
        <mask
            id="uxs-b"
            fill="#fff">
            <use xlink:href="#uxs-a" />
        </mask>
        <use
            fill="#FA2F63"
            xlink:href="#uxs-a" />
        <g
            fill="#FFF"
            mask="url(#uxs-b)">
            <g transform="translate(38 36)">
                <path d="M62.5263158,37.8947368 L62.5263158,61.8697238 C62.5263158,67.4645209 57.7546138,72 51.8684211,72 L37.8947368,72 L37.8947368,37.8947368 L62.5263158,37.8947368 Z M30.3157895,11.3684211 L30.3157895,34.1052632 L7.57894737,34.1052632 C3.39321032,34.1052632 -1.63800403e-13,30.7120528 -1.63424829e-13,26.5263158 L-1.63424829e-13,18.9473684 C-1.64825613e-13,14.7616314 3.39321032,11.3684211 7.57894737,11.3684211 L30.3157895,11.3684211 Z M60.6315789,11.3684211 C64.817316,11.3684211 68.2105263,14.7616314 68.2105263,18.9473684 L68.2105263,26.5263158 C68.2105263,30.7120528 64.817316,34.1052632 60.6315789,34.1052632 L37.8947368,34.1052632 L37.8947368,11.3684211 L60.6315789,11.3684211 Z M30.3157895,72 L16.3421053,72 C10.4559125,72 5.68421053,67.4645209 5.68421053,61.8697238 L5.68421053,37.8947368 L30.3157895,37.8947368 L30.3157895,72 Z" />
                <path
                    d="M37.8947368,37.8947368 L37.8947368,72 L30.3157895,72 L30.3157895,37.8947368 L37.8947368,37.8947368 Z M50.1826384,2.21982229 C52.6623751,4.69955899 53.0645488,8.47012783 51.3891596,11.3685693 L37.8947368,11.3684211 L37.8947368,34.1052632 L30.3157895,34.1052632 L30.3157895,11.3684211 L16.8214044,11.3686345 C15.1459715,8.47018442 15.5481326,4.6995776 18.0278879,2.21982229 C20.9296164,-0.681906194 25.5988968,-0.738802831 28.569941,2.04913238 L28.7461381,2.21982229 L34.1052632,7.57768202 L39.4643882,2.21982229 C42.4241513,-0.739940763 47.2228753,-0.739940763 50.1826384,2.21982229 Z"
                    opacity=".6" />
            </g>
        </g>
    </g>
</svg>
