<?xml version="1.0" encoding="UTF-8"?>
<svg width="24px"
    height="24px"
    viewBox="0 0 24 24"
    version="1.1"
    xmlns="http://www.w3.org/2000/svg"
    xmlns:xlink="http://www.w3.org/1999/xlink">
    <title>Public/ic_public_favor_filled</title>
    <defs>
        <path
            d="M12.1593726,4.65960664 C12.3223335,4.82303542 12.4951682,4.99703924 12.669858,5.17359602 L13.0193352,5.52773659 C13.5401335,6.05692261 14.0295162,6.56095264 14.2709795,6.82323009 L14.2709795,6.82323009 L14.4130459,6.97910741 C14.690336,7.28681354 15.1645691,7.31147058 15.4722753,7.03418046 C15.7799814,6.75689034 15.8046385,6.28265717 15.5273483,5.97495104 C15.1356849,5.54032602 14.1082843,4.49022482 13.2490364,3.62804287 C15.807302,2.24414079 19.0703432,2.63315168 21.2320021,4.7948106 C23.7381758,7.30098428 23.6296302,11.2079931 21.32375,14.2825 C20.619018,15.2221426 19.5405547,16.3935283 18.1571818,17.7279496 L18.1571818,17.7279496 L18.1107695,17.7725634 C17.4340425,18.4208657 16.2634585,19.4492679 14.5931605,20.8635183 L14.5931605,20.8635183 L13.6095931,21.6924482 C12.6786942,22.4737069 11.3208127,22.4723465 10.391481,21.6892241 C8.11075712,19.7673202 6.58183313,18.4344222 5.79364099,17.6797654 L5.79364099,17.6797654 L5.57218695,17.4649031 C4.31819158,16.2390572 3.3345236,15.1598332 2.67652368,14.2825 C0.370643522,11.2079931 0.262097854,7.30098428 2.76827153,4.7948106 C5.29886894,2.26421319 9.33888554,2.16298929 11.9902365,4.49113891 L11.9902365,4.49113891 L12,4.5 Z"
            id="path-1"></path>
    </defs>
    <g
        id="Public/ic_public_favor_filled"
        stroke="none"
        stroke-width="1"
        fill="none"
        fill-rule="evenodd">
        <mask
            id="mask-2"
            fill="white">
            <use xlink:href="#path-1"></use>
        </mask>
        <use
            id="蒙版"
            fill="#000000"
            fill-rule="nonzero"
            xlink:href="#path-1"></use>
    </g>
</svg>