<svg xmlns="http://www.w3.org/2000/svg"
    width="24px"
    height="24px"
    version="1.1"
    viewBox="0 0 40 40">
    <g
        fill="none"
        fill-rule="evenodd"
        stroke="none"
        stroke-width="1">
        <circle
            cx="20"
            cy="20"
            r="20"
            fill="#333" />
        <g
            fill="#FFF"
            transform="translate(10.906 7.608)">
            <path d="M9.77976226,0.958061744 C10.9934579,1.12961318 11.8615296,2.21971612 11.7569852,3.44100951 L11.3905719,7.71905357 L18.4457482,7.71951879 C19.5503177,7.71951879 20.4457482,8.61494929 20.4457482,9.71951879 C20.4457482,9.88118886 20.4261455,10.0422625 20.3873694,10.1992136 L18.396187,18.2587594 C18.0683876,19.5855663 16.8852548,20.5231186 15.5186472,20.5390143 L3.03489202,20.6842186 L2.85857192,20.6811764 L3.378,20.6792847 L4.13,20.6702847 L4.13,7.71928474 L5.56357192,7.71905357 L7.00691388,2.75068401 C7.35652687,1.54653293 8.53822551,0.782575075 9.77976226,0.958061744 Z" />
            <path
                fill-opacity=".6"
                d="M4.13,7.71928474 L4.13,20.6702847 L3.378,20.6792847 L2.84549806,20.680543 C1.27582401,20.6011031 0.0187335993,19.3124656 0.00020291567,17.7193135 L0,10.7195188 C-2.02906125e-16,9.06266454 1.34314575,7.71951879 3,7.71951879 L4.13,7.71928474 Z" />
        </g>
    </g>
</svg>
