<svg xmlns="http://www.w3.org/2000/svg"
    width="24px"
    height="24px"
    version="1.1"
    viewBox="0 0 40 40">
    <g
        fill="none"
        fill-rule="evenodd"
        stroke="none"
        stroke-width="1">
        <circle
            cx="20"
            cy="20"
            r="20"
            fill="#333" />
        <g
            fill="#FFF"
            transform="translate(10 10)">
            <rect
                width="5.556"
                height="10"
                x="14.444"
                y="10"
                fill-opacity=".6"
                rx="1.667" />
            <path d="M11.1111111,0 C12.0315857,-3.91133043e-16 12.7777778,0.746192084 12.7777778,1.66666667 L12.7777778,18.3333333 C12.7777778,19.2538079 12.0315857,20 11.1111111,20 L8.88888889,20 C7.96841431,20 7.22222222,19.2538079 7.22222222,18.3333333 L7.22222222,1.66666667 C7.22222222,0.746192084 7.96841431,8.35222253e-16 8.88888889,0 L11.1111111,0 Z M3.88888889,5 C4.80936347,5 5.55555556,5.74619208 5.55555556,6.66666667 L5.55555556,18.3333333 C5.55555556,19.2538079 4.80936347,20 3.88888889,20 L1.66666667,20 C0.746192084,20 9.30271286e-16,19.2538079 0,18.3333333 L0,6.66666667 C-1.12725625e-16,5.74619208 0.746192084,5 1.66666667,5 L3.88888889,5 Z" />
        </g>
    </g>
</svg>
