<?xml version="1.0" encoding="UTF-8"?>
<svg width="24px"
    height="24px"
    viewBox="0 0 24 24"
    version="1.1"
    xmlns="http://www.w3.org/2000/svg"
    xmlns:xlink="http://www.w3.org/1999/xlink">
    <title>Public/ic_public_search_filled</title>
    <defs>
        <path
            d="M17.6179267,16.3277876 L20.8132621,19.5240485 C21.2037864,19.9145728 21.2037864,20.5477378 20.8132621,20.9382621 C20.4227378,21.3287864 19.7895728,21.3287864 19.3990485,20.9382621 L16.189979,17.729164 C16.7142906,17.3140255 17.1931651,16.8440081 17.6179267,16.3277876 Z M10.375,2 C15.0003848,2 18.75,5.74961522 18.75,10.375 C18.75,12.5107968 17.9505141,14.4598636 16.6344856,15.9392571 L16.8468572,15.6909887 C16.7564149,15.8009681 16.6632239,15.9086017 16.5673893,16.0137845 C16.4969337,16.0911028 16.4254201,16.1667191 16.3525335,16.240983 C16.338412,16.2553719 16.3241207,16.2698289 16.3097773,16.2842339 C16.2403031,16.3540107 16.1694244,16.4227398 16.0973523,16.4902097 C16.0802283,16.506238 16.063454,16.5218113 16.046616,16.5373165 C15.9709789,16.6069739 15.8937108,16.6755519 15.8151858,16.7427027 C15.8023252,16.7537003 15.7894477,16.7646456 15.7765366,16.7755526 L15.7332842,16.8118433 C14.2811297,18.021995 12.4130822,18.75 10.375,18.75 C5.74961522,18.75 2,15.0003848 2,10.375 C2,5.74961522 5.74961522,2 10.375,2 Z M10.375,4 C6.85418472,4 4,6.85418472 4,10.375 C4,13.8958153 6.85418472,16.75 10.375,16.75 C13.8958153,16.75 16.75,13.8958153 16.75,10.375 C16.75,6.85418472 13.8958153,4 10.375,4 Z"
            id="path-1"></path>
    </defs>
    <g
        id="Public/ic_public_search_filled"
        stroke="none"
        stroke-width="1"
        fill="none"
        fill-rule="evenodd">
        <mask
            id="mask-2"
            fill="white">
            <use xlink:href="#path-1"></use>
        </mask>
        <use
            id="形状结合"
            fill="#000000"
            fill-rule="nonzero"
            xlink:href="#path-1"></use>
    </g>
</svg>