<?xml version="1.0" encoding="UTF-8"?>
<svg width="40px" height="40px" viewBox="0 0 40 40" version="1.1" xmlns="http://www.w3.org/2000/svg" xmlns:xlink="http://www.w3.org/1999/xlink">
    <title>Group 11</title>
    <g id="页面-1" stroke="none" stroke-width="1" fill="none" fill-rule="evenodd">
        <g id="phone录音机-列表左划" transform="translate(-248.000000, -356.000000)">
            <g id="Group-4" transform="translate(232.000000, 344.000000)">
                <g id="Group-11" transform="translate(16.000000, 12.000000)">
                    <circle id="Oval-3-Copy" fill="#46B1E3" cx="20" cy="20" r="20"></circle>
                    <path d="M18.75,27.5 L19.5,27.5 C19.9142136,27.5 20.25,27.8357864 20.25,28.25 C20.25,28.6642136 19.9142136,29 19.5,29 L16.5,29 C16.0857864,29 15.75,28.6642136 15.75,28.25 C15.75,27.8357864 16.0857864,27.5 16.5,27.5 L17.25,27.5 L17.25,12.5 L16.5,12.5 C16.0857864,12.5 15.75,12.1642136 15.75,11.75 C15.75,11.3357864 16.0857864,11 16.5,11 L19.5,11 C19.9142136,11 20.25,11.3357864 20.25,11.75 C20.25,12.1642136 19.9142136,12.5 19.5,12.5 L18.75,12.5 L18.75,27.5 Z M19.9788535,13.5 L27.75,13.5 C29.5449254,13.5 31,14.9550746 31,16.75 L31,23.25 C31,25.0449254 29.5449254,26.5 27.75,26.5 L19.9788535,26.5 L19.9788535,13.5 Z M16.0952381,26.5 L12.25,26.5 C10.4550746,26.5 9,25.0449254 9,23.25 L9,16.75 C9,14.9550746 10.4550746,13.5 12.25,13.5 L16.0546084,13.5 L16.0952381,26.5 Z" id="形状" fill="#FFFFFF" fill-rule="nonzero"></path>
                </g>
            </g>
        </g>
    </g>
</svg>