<?xml version="1.0" encoding="UTF-8"?>
<svg width="24px" height="24px" viewBox="0 0 24 24" version="1.1" xmlns="http://www.w3.org/2000/svg" xmlns:xlink="http://www.w3.org/1999/xlink">
    <title>Public/ic_public_more_filled</title>
    <defs>
        <path d="M6.5,15 C7.6045695,15 8.5,15.8954305 8.5,17 C8.5,18.1045695 7.6045695,19 6.5,19 C5.3954305,19 4.5,18.1045695 4.5,17 C4.5,15.8954305 5.3954305,15 6.5,15 Z M17.5,15 C18.6045695,15 19.5,15.8954305 19.5,17 C19.5,18.1045695 18.6045695,19 17.5,19 C16.3954305,19 15.5,18.1045695 15.5,17 C15.5,15.8954305 16.3954305,15 17.5,15 Z M6.5,5 C7.6045695,5 8.5,5.8954305 8.5,7 C8.5,8.1045695 7.6045695,9 6.5,9 C5.3954305,9 4.5,8.1045695 4.5,7 C4.5,5.8954305 5.3954305,5 6.5,5 Z M17.5,5 C18.6045695,5 19.5,5.8954305 19.5,7 C19.5,8.1045695 18.6045695,9 17.5,9 C16.3954305,9 15.5,8.1045695 15.5,7 C15.5,5.8954305 16.3954305,5 17.5,5 Z" id="path-1"></path>
    </defs>
    <g id="Public/ic_public_more_filled" stroke="none" stroke-width="1" fill="none" fill-rule="evenodd">
        <mask id="mask-2" fill="white">
            <use xlink:href="#path-1"></use>
        </mask>
        <use id="形状结合" fill="#000000" xlink:href="#path-1"></use>
    </g>
</svg>