<!--<?xml version="1.0" encoding="UTF-8"?>-->
<!--<svg viewBox="0 0 48 48" version="1.1" xmlns="http://www.w3.org/2000/svg" xmlns:xlink="http://www.w3.org/1999/xlink">-->
<!--    <title>删除</title>-->
<!--    <defs>-->
<!--        <filter id="filter-1">-->
<!--            <feColorMatrix in="SourceGraphic" type="matrix" values="0 0 0 0 0.452367 0 0 0 0 0.452367 0 0 0 0 0.452367 0 0 0 1.000000 0"></feColorMatrix>-->
<!--        </filter>-->
<!--        <path d="M7.257,12 L9.45225802,33.9477667 C9.67787496,36.2039362 11.5442229,37.9324192 13.7969744,37.998065 L13.9299254,38 L26.0684565,38 C28.3363797,38 30.2422463,36.3141822 30.5311373,34.0785712 L30.5462564,33.9464391 L32.3848321,15.5054766 L32.739,12 L35.754,12 L35.3698156,15.8052588 L33.5314563,34.2440652 C33.1545694,38.024254 30.0140535,40.9163574 26.2332368,40.9982175 L26.0684565,41 L13.9299254,41 C10.1318343,41 6.94285407,38.1631158 6.48531199,34.4100271 L6.46714645,34.2462779 L4.242,12 L7.257,12 Z M16.5,20.5 C17.3284271,20.5 18,21.1715729 18,22 L18,34 C18,34.8284271 17.3284271,35.5 16.5,35.5 C15.6715729,35.5 15,34.8284271 15,34 L15,22 C15,21.1715729 15.6715729,20.5 16.5,20.5 Z M23.5,20.5 C24.3284271,20.5 25,21.1715729 25,22 L25,34 C25,34.8284271 24.3284271,35.5 23.5,35.5 C22.6715729,35.5 22,34.8284271 22,34 L22,22 C22,21.1715729 22.6715729,20.5 23.5,20.5 Z M20,0.5 C23.5385673,0.5 26.4167142,3.32759592 26.4982248,6.84657189 L26.5,7 L38,7 C38.8284271,7 39.5,7.67157288 39.5,8.5 C39.5,9.29884044 38.87554,9.95183044 38.0881364,9.99745365 L38,10 L25,10 C24.2011596,10 23.5481696,9.37554002 23.5025463,8.58813639 L23.5,8.5 L23.5,7 C23.5,5.06700338 21.9329966,3.5 20,3.5 C18.1072741,3.5 16.5654507,5.00239169 16.5020295,6.87967512 L16.5,7 L16.5,8.5 C16.5,9.29884044 15.87554,9.95183044 15.0881364,9.99745365 L15,10 L1.5,10 C0.671572875,10 0,9.32842712 0,8.5 C0,7.70115956 0.624459982,7.04816956 1.41186361,7.00254635 L1.5,7 L13.5,7 C13.5,3.41014913 16.4101491,0.5 20,0.5 Z" id="path-2"></path>-->
<!--    </defs>-->
<!--    <g id="删除" stroke="none" stroke-width="1" fill="none" fill-rule="evenodd" opacity="0.7">-->
<!--        <g filter="url(#filter-1)" id="编组-24">-->
<!--            <g transform="translate(4.000000, 4.000000)">-->
<!--                <g id="跨设备">-->
<!--                    <g id="Public/ic_public_edit">-->
<!--                        <mask id="mask-3" fill="white">-->
<!--                            <use xlink:href="#path-2"></use>-->
<!--                        </mask>-->
<!--                        <use id="形状结合" fill="#000000" fill-rule="nonzero" xlink:href="#path-2"></use>-->
<!--                    </g>-->
<!--                </g>-->
<!--            </g>-->
<!--        </g>-->
<!--    </g>-->
<!--</svg>-->


<svg viewBox="0 0 48 48">
    <g transform="translate(4.000000, 4.000000)" id="删除" stroke="none" stroke-width="1" fill-rule="evenodd" opacity="0.7">
<path fill="white"  d="M7.257,12 L9.45225802,33.9477667 C9.67787496,36.2039362 11.5442229,37.9324192 13.7969744,37.998065 L13.9299254,38 L26.0684565,38 C28.3363797,38 30.2422463,36.3141822 30.5311373,34.0785712 L30.5462564,33.9464391 L32.3848321,15.5054766 L32.739,12 L35.754,12 L35.3698156,15.8052588 L33.5314563,34.2440652 C33.1545694,38.024254 30.0140535,40.9163574 26.2332368,40.9982175 L26.0684565,41 L13.9299254,41 C10.1318343,41 6.94285407,38.1631158 6.48531199,34.4100271 L6.46714645,34.2462779 L4.242,12 L7.257,12 Z M16.5,20.5 C17.3284271,20.5 18,21.1715729 18,22 L18,34 C18,34.8284271 17.3284271,35.5 16.5,35.5 C15.6715729,35.5 15,34.8284271 15,34 L15,22 C15,21.1715729 15.6715729,20.5 16.5,20.5 Z M23.5,20.5 C24.3284271,20.5 25,21.1715729 25,22 L25,34 C25,34.8284271 24.3284271,35.5 23.5,35.5 C22.6715729,35.5 22,34.8284271 22,34 L22,22 C22,21.1715729 22.6715729,20.5 23.5,20.5 Z M20,0.5 C23.5385673,0.5 26.4167142,3.32759592 26.4982248,6.84657189 L26.5,7 L38,7 C38.8284271,7 39.5,7.67157288 39.5,8.5 C39.5,9.29884044 38.87554,9.95183044 38.0881364,9.99745365 L38,10 L25,10 C24.2011596,10 23.5481696,9.37554002 23.5025463,8.58813639 L23.5,8.5 L23.5,7 C23.5,5.06700338 21.9329966,3.5 20,3.5 C18.1072741,3.5 16.5654507,5.00239169 16.5020295,6.87967512 L16.5,7 L16.5,8.5 C16.5,9.29884044 15.87554,9.95183044 15.0881364,9.99745365 L15,10 L1.5,10 C0.671572875,10 0,9.32842712 0,8.5 C0,7.70115956 0.624459982,7.04816956 1.41186361,7.00254635 L1.5,7 L13.5,7 C13.5,3.41014913 16.4101491,0.5 20,0.5 Z" id="path-2"></path>
    </g>
</svg>