<?xml version="1.0" encoding="UTF-8"?>
<svg  viewBox="0 0 40 40" version="1.1" xmlns="http://www.w3.org/2000/svg" xmlns:xlink="http://www.w3.org/1999/xlink">
    <title>编辑</title>
    <g id="编辑" stroke="none" stroke-width="1" fill="none" fill-rule="evenodd">
        <g id="编组-6">
            <path d="M20,0 C31.045695,0 40,8.954305 40,20 C40,31.045695 31.045695,40 20,40 C8.954305,40 0,31.045695 0,20 C0,8.954305 8.954305,0 20,0 Z M24.5752392,10.0833333 L14.4247608,10.0833333 C12.5674301,10.0833333 11.8939171,10.27672 11.2149048,10.6398598 L11.2149048,10.6398598 L11.1188996,10.6928891 C10.4855257,11.0540826 9.98570721,11.5682264 9.6398598,12.2149048 L9.6398598,12.2149048 L9.61691143,12.25825 C9.26857835,12.9231132 9.08333333,13.6069478 9.08333333,15.4247608 L9.08333333,15.4247608 L9.08333333,25.5752392 C9.08333333,27.4325699 9.27672002,28.1060829 9.6398598,28.7850952 L9.6398598,28.7850952 L9.69288914,28.8811004 C10.0540826,29.5144743 10.5682264,30.0142928 11.2149048,30.3601402 L11.2149048,30.3601402 L11.25825,30.3830886 C11.8942061,30.7162767 12.5475198,30.9002501 14.193994,30.9156179 L14.193994,30.9156179 L14.4247608,30.9166667 L24.5752392,30.9166667 C26.4325699,30.9166667 27.1060829,30.72328 27.7850952,30.3601402 L27.7850952,30.3601402 L27.8811004,30.3071109 C28.5144743,29.9459174 29.0142928,29.4317736 29.3601402,28.7850952 L29.3601402,28.7850952 L29.3830886,28.74175 C29.7162767,28.1057939 29.9002501,27.4524802 29.9156179,25.806006 L29.9156179,25.806006 L29.9166667,25.5752392 L29.9166667,15.4247608 C29.9166667,14.3834066 29.8558749,13.7141897 29.7384566,13.2074938 L29.7384566,13.2074938 L28.3398015,14.6044376 C28.3496522,14.839777 28.3541667,15.1099615 28.3541667,15.4247608 L28.3541667,15.4247608 L28.3534307,25.7868105 C28.3440436,27.0828708 28.2436398,27.5595722 27.9823071,28.048222 C27.764792,28.4549399 27.4549399,28.764792 27.048222,28.9823071 C26.5338538,29.2573942 26.0327248,29.3541667 24.5752392,29.3541667 L24.5752392,29.3541667 L14.4247608,29.3541667 L14.2131895,29.3534307 C12.9171292,29.3440436 12.4404278,29.2436398 11.951778,28.9823071 C11.5450601,28.764792 11.235208,28.4549399 11.0176929,28.048222 C10.7635993,27.5731082 10.6616424,27.10929 10.6475604,25.8926479 L10.6475604,25.8926479 L10.6460161,25.6827726 L10.6458333,15.4247608 C10.6458333,13.9672752 10.7426058,13.4661462 11.0176929,12.951778 C11.235208,12.5450601 11.5450601,12.235208 11.951778,12.0176929 C12.4268918,11.7635993 12.89071,11.6616424 14.1073521,11.6475604 L14.1073521,11.6475604 L14.3172274,11.6460161 L24.7868105,11.6465693 C25.0131326,11.6482085 25.2144698,11.6526231 25.3952486,11.6601854 L25.3952486,11.6601854 L26.7930301,10.2616648 C26.2862716,10.1441671 25.6169524,10.0833333 24.5752392,10.0833333 L24.5752392,10.0833333 Z M30.1563308,9.84366921 C29.7495346,9.43687308 29.0899878,9.43687308 28.6831917,9.84366921 L28.6831917,9.84366921 L18.7395025,19.7873583 C18.3327064,20.1941545 18.3327064,20.8537013 18.7395025,21.2604975 C19.1462987,21.6672936 19.8058455,21.6672936 20.2126417,21.2604975 L20.2126417,21.2604975 L30.1563308,11.3168083 C30.5631269,10.9100122 30.5631269,10.2504654 30.1563308,9.84366921 Z" id="形状结合" fill="#2C2C2C"></path>
            <g id="Public/ic_public_edit" transform="translate(9.000000, 9.000000)"></g>
        </g>
    </g>
</svg>