<?xml version="1.0" encoding="UTF-8"?>
<svg viewBox="0 0 193 193" version="1.1" xmlns="http://www.w3.org/2000/svg" xmlns:xlink="http://www.w3.org/1999/xlink">
    <title>icon_play_last</title>
    <g id="music" stroke="none" stroke-width="1" fill="none" fill-rule="evenodd">
        <g id="music1备份-2" transform="translate(-457.000000, -2373.000000)">
            <g id="icon_play_last" transform="translate(457.000000, 2373.000000)">
                <circle id="椭圆形" fill="#123430" opacity="0.601531982" cx="96.5" cy="96.5" r="96.5"></circle>
                <path d="M128.986572,71.081563 C129.65048,72.3221007 130,73.7293139 130,75.1617635 L130,116.839599 C130,121.346464 126.613334,125 122.43567,125 C121.107852,125 119.803428,124.622938 118.653505,123.906713 L85.1959059,103.067796 C81.5779426,100.814363 80.3383368,95.8235404 82.4271689,91.9204808 C83.0910775,90.6799432 84.0459824,89.6497914 85.1959059,88.9335666 L118.653505,68.094649 C122.271468,65.8412165 126.89774,67.1785035 128.986572,71.081563 Z M67.3224744,69.1879354 C69.709711,69.1879354 71.6449487,71.2756702 71.6449487,73.8510217 L71.6449487,73.8510217 L71.6449487,118.150341 C71.6449487,120.725692 69.709711,122.813427 67.3224744,122.813427 C64.9352377,122.813427 63,120.725692 63,118.150341 L63,118.150341 L63,73.8510217 C63,71.2756702 64.9352377,69.1879354 67.3224744,69.1879354 Z" id="path-1" fill="#FFFFFF" fill-rule="nonzero"></path>
            </g>
        </g>
    </g>
</svg>