<?xml version="1.0" encoding="UTF-8"?>
<svg viewBox="0 0 193 193" version="1.1" xmlns="http://www.w3.org/2000/svg" xmlns:xlink="http://www.w3.org/1999/xlink">
    <title>icon_hop</title>
    <g id="icon_hop" stroke="none" stroke-width="1" fill="none" fill-rule="evenodd">
        <circle id="椭圆形" fill="#123430" fill-rule="nonzero" opacity="0.601531982" cx="96.5" cy="96.5" r="96.5"></circle>
        <path d="M151.666667,93 C153.875806,93 155.666667,94.790861 155.666667,97 C155.666667,129.400705 129.400705,155.666667 97,155.666667 C64.5992947,155.666667 38.3333333,129.400705 38.3333333,97 C38.3333333,94.790861 40.1241943,93 42.3333333,93 C44.5424723,93 46.3333333,94.790861 46.3333333,97 C46.3333333,124.982427 69.0175726,147.666667 97,147.666667 C124.982427,147.666667 147.666667,124.982427 147.666667,97 C147.666667,94.790861 149.457528,93 151.666667,93 Z M104.528547,68.7018491 L104.759261,68.924909 L119.844205,84.0098538 C120.531528,84.6971765 120.916429,85.5724002 120.998908,86.470172 L121.013904,86.7154536 L121.013904,86.961108 C120.983911,87.943477 120.594012,88.9169013 119.844205,89.666708 C118.337897,91.173016 115.929115,91.2268126 114.358344,89.8280981 L114.187351,89.666708 L102.159226,77.639239 L102.159407,100.033052 C102.159407,111.458094 93.1782421,120.785473 81.8908224,121.340277 L80.8260739,121.366386 L79.3032264,121.366386 C77.0940874,121.366386 75.3032264,119.575525 75.3032264,117.366386 C75.3032264,115.341342 76.808047,113.667767 78.7604501,113.402901 L79.3032264,113.366386 L80.8260739,113.366386 C87.8953187,113.366386 93.6796134,107.864861 94.1310462,100.909723 L94.1594072,100.033052 L94.1592264,77.637639 L82.1318435,89.666708 C80.5697464,91.2288051 78.0370866,91.2288051 76.4749893,89.666708 C75.7218354,88.9135539 75.3318091,87.9347813 75.3049109,86.9479507 L75.3057514,86.7012011 C75.3365725,85.7967605 75.6725218,84.9007832 76.3135992,84.1808467 L76.4749893,84.0098538 L91.5599341,68.924909 C95.1288922,65.3559509 100.869119,65.2815976 104.528547,68.7018491 Z M145.304557,71.2225954 C147.995422,70.0245451 151.148011,71.2347106 152.346062,73.9255758 C153.544112,76.616441 152.333947,79.7690299 149.643081,80.9670803 C146.952216,82.1651307 143.799627,80.9549651 142.601577,78.2641 C141.403526,75.5732347 142.613692,72.4206458 145.304557,71.2225954 Z M48.6909053,71.2225954 C51.3817706,72.4206458 52.591936,75.5732347 51.3938856,78.2641 C50.1958352,80.9549651 47.0432463,82.1651307 44.3523811,80.9670803 C41.6615159,79.7690299 40.4513504,76.616441 41.6494008,73.9255758 C42.8474511,71.2347106 46.0000401,70.0245451 48.6909053,71.2225954 Z M131.867991,54.5901035 C133.950787,52.5073074 137.327667,52.5073074 139.410463,54.5901035 C141.493259,56.6728998 141.493259,60.0497797 139.410463,62.1325758 C137.327667,64.2153722 133.950787,64.2153722 131.867991,62.1325758 C129.785194,60.0497797 129.785194,56.6728998 131.867991,54.5901035 Z M62.111519,54.5735138 C64.1943154,56.6563099 64.1943154,60.0331899 62.111519,62.1159861 C60.0287229,64.1987824 56.6518429,64.1987824 54.5690467,62.1159861 C52.4862506,60.0331899 52.4862506,56.6563099 54.5690467,54.5735138 C56.6518429,52.4907176 60.0287229,52.4907176 62.111519,54.5735138 Z M113.077902,44.3160475 C114.181312,41.5850101 117.289747,40.265558 120.020784,41.3689687 C122.751822,42.4723794 124.071274,45.5808138 122.967863,48.3118511 C121.864452,51.0428885 118.756018,52.3623405 116.02498,51.2589299 C113.293943,50.1555192 111.974491,47.0470848 113.077902,44.3160475 Z M80.9411963,44.3159681 C82.044607,47.0470054 80.7251549,50.1554398 77.9941176,51.2588506 C75.2630802,52.3622611 72.1546459,51.0428091 71.0512352,48.3117718 C69.9478245,45.5807344 71.2672765,42.4723001 73.9983139,41.3688894 C76.7293512,40.2654787 79.8377856,41.5849308 80.9411963,44.3159681 Z M97,37.5333333 C99.9455187,37.5333333 102.333333,39.921148 102.333333,42.8666667 C102.333333,45.8121853 99.9455187,48.2 97,48.2 C94.0544813,48.2 91.6666667,45.8121853 91.6666667,42.8666667 C91.6666667,39.921148 94.0544813,37.5333333 97,37.5333333 Z" id="icon-流转" fill="#FFFFFF" fill-rule="nonzero"></path>
    </g>
</svg>