<?xml version="1.0" encoding="UTF-8"?>
<svg width="20px" height="20px" viewBox="0 0 32 32" version="1.1" xmlns="http://www.w3.org/2000/svg" xmlns:xlink="http://www.w3.org/1999/xlink">
    <title>ic_1</title>
    <g id="ic_1" stroke="none" stroke-width="1" fill="none" fill-rule="evenodd">
        <path d="M20.3179497,21.672972 C20.098701,21.8828798 19.8731317,22.0969315 19.6417388,22.3147405 C18.6141041,23.2820483 17.515052,24.2832545 16.4162529,25.2620174 C16.0318496,25.6044273 15.6748085,25.9196881 15.3541671,26.2006717 C15.2417339,26.299199 15.1418076,26.3864676 15.0555198,26.4615847 C15.0033942,26.5069622 14.967178,26.5383955 14.9480034,26.5549908 L14.7387404,26.7361054 C14.3310253,27.0889778 13.7338969,27.0878418 13.3274645,26.7334204 L13.1188892,26.5515365 C13.0953622,26.5310203 13.0508332,26.4920656 12.9866983,26.4357687 C12.8804709,26.3425234 12.7574362,26.234134 12.6189894,26.1116958 C12.2241025,25.7624695 11.7843632,25.3702376 11.3109161,24.9437449 C9.95768145,23.7247183 8.60417499,22.4742684 7.33887494,21.2615889 C7.29212513,21.2167833 7.24556197,21.1720914 7.19916393,21.1274919 C4.89461217,18.9121691 3.19649082,16.4253028 2.56906325,14.9540675 C2.21909601,14.1313934 2.0267355,13.2340702 2.00243947,12.3095776 C1.89969309,8.36827464 5.05595825,5.03731757 8.93639857,5.00032922 C10.8924716,4.98132689 12.7079133,5.78596311 14.0129493,7.14592914 C15.489354,5.65618445 17.6452541,4.79627577 19.8121138,5.04702386 C22.9584082,5.41144018 25.5059316,7.93919142 25.9335908,11.1237251 C26.1122612,12.4534242 25.9275413,13.7662504 25.4140253,14.9550455 C24.7613836,16.4652876 23.1053982,18.9582997 20.9481794,21.0639209 C20.7449364,21.262312 20.5347216,21.4654355 20.3179497,21.672972 Z" id="路径" fill-opacity="0.8" fill="#E64566"></path>
        <path d="M26.6854707,24.0943484 C26.5575756,24.2088435 26.4259935,24.325599 26.2910143,24.4444039 C25.6915607,24.9720264 25.050447,25.5181388 24.4094809,26.0520095 C24.1852456,26.2387785 23.9769716,26.410739 23.7899308,26.5640028 C23.7243448,26.6177449 23.6660544,26.665346 23.6157199,26.7063189 C23.5853133,26.7310703 23.5641871,26.7482157 23.553002,26.7572677 L23.4309319,26.8560575 C23.1930981,27.0485334 22.8447732,27.0479137 22.6076876,26.8545929 L22.4860187,26.7553836 C22.4722946,26.7441929 22.4463194,26.7229449 22.4089074,26.6922374 C22.3469414,26.6413764 22.2751711,26.5822549 22.1944105,26.5154704 C21.9640598,26.3249833 21.7075452,26.1110387 21.4313677,25.8784063 C20.6419808,25.2134827 19.8524354,24.5314191 19.1143437,23.8699576 C19.087073,23.8455182 19.0599111,23.8211407 19.0328456,23.7968138 C17.6885238,22.5884559 16.697953,21.2319833 16.3319536,20.4294913 C16.127806,19.98076 16.0155957,19.491311 16.001423,18.9870423 C15.9414876,16.8372407 17.7826423,15.020355 20.0462325,15.0001796 C21.1872751,14.9898147 22.2462828,15.4287071 23.0075537,16.1705068 C23.8687898,15.3579188 25.1263982,14.8888777 26.3903997,15.0256494 C28.2257381,15.2244219 29.7117935,16.6031953 29.9612613,18.3402137 C30.0654857,19.0655041 29.9577324,19.7815911 29.6581814,20.4300248 C29.2774738,21.2537932 28.3114823,22.613618 27.0531047,23.7621387 C26.9345462,23.870352 26.8119209,23.9811466 26.6854707,24.0943484 Z" id="路径备份" fill-opacity="0.6" fill="#E64566"></path>
    </g>
</svg>