<?xml version="1.0" encoding="UTF-8"?>
<svg width="24px" height="24px" viewBox="0 0 24 24" version="1.1" xmlns="http://www.w3.org/2000/svg" xmlns:xlink="http://www.w3.org/1999/xlink">
    <title>ic_celiakeyboard_delete</title>
    <g id="编组" fill="#000000" fill-rule="evenodd" stroke="none" stroke-width="1" fill-opacity="0.9">
        <path d="M21.322995,5 C22.248777,5 23.0244322,5.775 22.9994111,6.7 L22.9994111,6.7 L22.9994111,17.825 C22.9994111,18.75 22.248777,19.5 21.322995,19.5 L21.322995,19.5 L8.73736357,19.5 C8.3370254,19.5 7.96170836,19.35 7.68647586,19.075 L7.68647586,19.075 L1.9316146,13.35 C1.35612847,12.75 1.35612847,11.8 1.9316146,11.225 L1.9316146,11.225 L7.68647586,5.45 C7.98672949,5.15 8.36204653,5 8.76238471,5 L8.76238471,5 Z M21.322995,6.5 L8.76238471,6.5 L3.00752344,12.275 L8.76238471,18 L21.3480161,18 C21.4481006,18 21.523164,17.925 21.523164,17.825 L21.523164,17.825 L21.523164,6.7 C21.523164,6.6 21.4481006,6.5 21.322995,6.5 L21.322995,6.5 Z M10.7327992,8.725 C11.0080317,8.425 11.4834332,8.425 11.7836869,8.725 L11.7836869,8.725 L14.2607793,11.2 L16.7378718,8.725 C17.0381254,8.425 17.513527,8.425 17.8137806,8.725 C18.1140343,9 18.1140343,9.475 17.8137806,9.775 L17.8137806,9.775 L15.3366882,12.25 L17.7887595,14.725 C18.0890131,15 18.0890131,15.475 17.7887595,15.775 C17.513527,16.075 17.0381254,16.075 16.7378718,15.775 L16.7378718,15.775 L14.2607793,13.3 L11.7836869,15.775 C11.5084544,16.075 11.0330528,16.075 10.7327992,15.775 C10.4325455,15.5 10.4325455,15.025 10.7327992,14.725 L10.7327992,14.725 L13.2098916,12.25 L10.7327992,9.775 C10.4325455,9.5 10.4325455,9.025 10.7327992,8.725 Z" id="path-1"></path>
    </g>
</svg>