<?xml version="1.0" encoding="UTF-8"?>
<svg width="24px" height="24px" viewBox="0 0 24 24" version="1.1" xmlns="http://www.w3.org/2000/svg" xmlns:xlink="http://www.w3.org/1999/xlink">
    <title>ic_celiakeyboard_enter</title>
    <g id="编组" fill="#000000" fill-rule="evenodd" stroke="none" stroke-width="1" fill-opacity="0.9">
        <path d="M21.3569302,6.75 C21.7366259,6.75 22.0504211,7.03215388 22.1000836,7.39822944 L22.1069302,7.5 L22.1069302,12.75 C22.1069302,13.1296958 21.8247763,13.443491 21.4587007,13.4931534 L21.3569302,13.5 L4.55479618,13.5 L6.15533009,15.0998737 C6.42381554,15.3683592 6.44618932,15.7897588 6.22245145,16.08373 L6.15533009,16.1605339 C5.88684464,16.4290194 5.465445,16.4513931 5.17147385,16.2276553 L5.09466991,16.1605339 L2.08946609,13.1553301 C1.82098064,12.8868446 1.79860686,12.465445 2.02234473,12.1714739 L2.08946609,12.0946699 L5.09466991,9.08946609 C5.38756313,8.79657288 5.86243687,8.79657288 6.15533009,9.08946609 C6.42381554,9.35795154 6.44618932,9.77935118 6.22245145,10.0733223 L6.15533009,10.1501263 L4.30179618,12.003 L4.35693018,12 L20.606,12 L20.6069302,7.5 C20.6069302,7.12030423 20.8890841,6.80650904 21.2551596,6.75684662 L21.3569302,6.75 Z" id="path-1"></path>
    </g>
</svg>