<?xml version="1.0" encoding="UTF-8"?>
<svg width="24px" height="24px" viewBox="0 0 24 24" version="1.1" xmlns="http://www.w3.org/2000/svg" xmlns:xlink="http://www.w3.org/1999/xlink">
    <title>ic_celiakeyboard_switch_minuscule</title>
    <g id="编组" stroke="none" stroke-width="1" fill="#000000" fill-rule="evenodd" fill-opacity="0.9">
        <path d="M10.9231524,4.03665537 L3.39707857,11.827014 C3.00698916,12.2308712 3.01815022,12.8744922 3.42200749,13.2645816 L3.52184221,13.3492957 C3.69625496,13.4789367 3.9087157,13.55 4.12832686,13.55 L7.531,13.55 L7.53125,19.4666667 C7.53125,20.1754321 8.1058179,20.75 8.81458333,20.75 L15.1854167,20.75 L15.31663,20.7433743 C15.9637587,20.6776548 16.46875,20.1311343 16.46875,19.4666667 L16.468,13.55 L19.8716731,13.55 C20.4331626,13.55 20.8883398,13.0948228 20.8883398,12.5333333 C20.8883398,12.2697999 20.7860087,12.0165632 20.6029214,11.827014 L13.1148539,4.07466175 C12.5201275,3.45894492 11.5388693,3.44192888 10.9231524,4.03665537 Z M11.9881568,5.10292385 C12.0048417,5.09887338 12.0231732,5.10353107 12.035963,5.1167723 L18.733,12.05 L14.96875,12.05 L14.968,19.25 L9.031,19.25 L9.03125,12.05 L5.266,12.05 L11.965263,5.11554628 L11.9881568,5.10292385 Z" id="path-1"></path>
    </g>
</svg>