<?xml version="1.0" encoding="UTF-8"?>
<svg width="24px" height="24px" viewBox="0 0 24 24" version="1.1" xmlns="http://www.w3.org/2000/svg" xmlns:xlink="http://www.w3.org/1999/xlink">
    <title>ic_celiakeyboard_switch_majuscule</title>
    <g id="编组" fill="#000000" fill-rule="evenodd" stroke="none" stroke-width="1" fill-opacity="0.9">
        <path d="M10.9231524,4.03665537 C11.5388693,3.44192888 12.5201275,3.45894492 13.1148539,4.07466175 L13.1148539,4.07466175 L20.6029214,11.827014 C20.7860087,12.0165632 20.8883398,12.2697999 20.8883398,12.5333333 C20.8883398,13.0948228 20.4331626,13.55 19.8716731,13.55 L19.8716731,13.55 L16.468,13.55 L16.46875,19.4666667 C16.46875,20.1311343 15.9637587,20.6776548 15.31663,20.7433743 L15.31663,20.7433743 L15.1854167,20.75 L8.81458333,20.75 C8.1058179,20.75 7.53125,20.1754321 7.53125,19.4666667 L7.53125,19.4666667 L7.531,13.55 L4.12832686,13.55 C3.9087157,13.55 3.69625496,13.4789367 3.52184221,13.3492957 L3.52184221,13.3492957 L3.42200749,13.2645816 C3.01815022,12.8744922 3.00698916,12.2308712 3.39707857,11.827014 L3.39707857,11.827014 Z" id="path-1"></path>
    </g>
</svg>